<svg width="14" height="11" viewBox="0 0 14 11" fill="none" xmlns="http://www.w3.org/2000/svg">
    <path d="M13.9 0.164773C13.7414 -0.0186969 13.4489 -0.0547684 13.2442 0.0859814C11.4023 1.35315 9.67997 2.76702 8.09174 4.30621C7.24552 5.12822 6.43819 5.98743 5.68406 6.89332C5.28335 7.37809 4.89788 7.87616 4.53357 8.39277H4.51055L2.38239 4.52109C2.36186 4.48402 2.33852 4.44654 2.31317 4.41089C1.92086 3.85878 1.09719 3.71308 0.503748 4.10322C-0.0526741 4.46903 -0.150519 5.19272 0.222037 5.71725L3.66712 10.5661L3.70928 10.6257C3.83108 10.7977 4.02568 10.9306 4.27472 10.9816C4.70172 11.0689 5.12592 10.8373 5.30263 10.473C5.75717 9.53645 6.34517 8.6191 6.98714 7.73343C7.64141 6.83589 8.35852 5.96748 9.11919 5.12921C10.5477 3.55847 12.1262 2.08845 13.8349 0.752669C14.0262 0.603007 14.0557 0.344989 13.9 0.164773Z" fill="#72B537"/>
</svg>
