<svg width="10" height="10" viewBox="0 0 10 10" fill="none" xmlns="http://www.w3.org/2000/svg">
    <path fill-rule="evenodd" clip-rule="evenodd" d="M6.21072 6.36632C5.8742 5.97504 5.52127 5.57765 5.15155 5.18421C3.93944 6.35176 2.81698 7.66647 2.00468 9.15272C1.0082 10.976 -0.462307 9.48401 0.204878 8.16261C0.741205 6.95708 2.1203 5.28454 3.77792 3.8333C2.86503 3.01257 1.86444 2.27249 0.768549 1.72698C-0.835158 0.928473 0.390034 -0.409645 1.55019 0.121117C2.52753 0.511024 3.87616 1.51491 5.10994 2.76352C6.34256 1.86134 7.64021 1.15431 8.81013 0.877521C9.06403 0.817324 9.80524 0.654633 9.97595 0.897981C10.0402 0.989851 9.9695 1.12775 9.83767 1.27746C9.38864 1.78816 8.18181 2.59787 7.59705 3.06411C7.17498 3.40071 6.74646 3.75245 6.32029 4.12072C6.77342 4.68748 7.17849 5.27431 7.50134 5.85523C7.78201 6.36003 8.00037 6.86049 8.13454 7.33971C8.19587 7.55867 8.36404 8.19822 8.1615 8.35599C8.08513 8.4156 7.96404 8.35914 7.83044 8.25015C7.37459 7.87854 6.63338 6.85794 6.21072 6.36632Z" fill="#EB0100"/>
</svg>
