<svg width="256" height="256" viewBox="0 0 256 256" fill="none" xmlns="http://www.w3.org/2000/svg">
    <path d="M250.667 192C250.667 194.829 249.543 197.542 247.542 199.543C245.542 201.543 242.829 202.667 240 202.667H128C125.171 202.667 122.458 201.543 120.458 199.543C118.457 197.542 117.333 194.829 117.333 192C117.333 189.171 118.457 186.458 120.458 184.458C122.458 182.457 125.171 181.333 128 181.333H240C242.829 181.333 245.542 182.457 247.542 184.458C249.543 186.458 250.667 189.171 250.667 192Z" fill="#8C8C8C"/>
    <path d="M16 181.333H44.5333C47.0495 174.216 52.0007 168.218 58.5118 164.399C65.0228 160.579 72.6745 159.184 80.1145 160.461C87.5544 161.737 94.3036 165.603 99.1691 171.374C104.035 177.146 106.703 184.451 106.703 192C106.703 199.549 104.035 206.854 99.1691 212.626C94.3036 218.397 87.5544 222.263 80.1145 223.539C72.6745 224.816 65.0228 223.421 58.5118 219.601C52.0007 215.782 47.0495 209.784 44.5333 202.667H16C13.171 202.667 10.4579 201.543 8.45751 199.543C6.45712 197.542 5.33331 194.829 5.33331 192C5.33331 189.171 6.45712 186.458 8.45751 184.458C10.4579 182.457 13.171 181.333 16 181.333ZM74.6666 202.667C76.7763 202.667 78.8386 202.041 80.5927 200.869C82.3469 199.697 83.714 198.031 84.5214 196.082C85.3287 194.133 85.5399 191.988 85.1284 189.919C84.7168 187.85 83.7009 185.949 82.2091 184.458C80.7174 182.966 78.8167 181.95 76.7476 181.538C74.6785 181.127 72.5338 181.338 70.5847 182.145C68.6356 182.953 66.9697 184.32 65.7976 186.074C64.6256 187.828 64 189.89 64 192C64 194.829 65.1238 197.542 67.1242 199.543C69.1246 201.543 71.8377 202.667 74.6666 202.667Z" fill="#8C8C8C"/>
    <path d="M240 138.667H200.8C198.284 145.784 193.333 151.782 186.822 155.601C180.31 159.421 172.659 160.816 165.219 159.539C157.779 158.263 151.03 154.397 146.164 148.626C141.299 142.854 138.63 135.549 138.63 128C138.63 120.451 141.299 113.146 146.164 107.374C151.03 101.603 157.779 97.7374 165.219 96.4609C172.659 95.1844 180.31 96.5792 186.822 100.399C193.333 104.218 198.284 110.216 200.8 117.333H240C242.829 117.333 245.542 118.457 247.542 120.458C249.543 122.458 250.667 125.171 250.667 128C250.667 130.829 249.543 133.542 247.542 135.543C245.542 137.543 242.829 138.667 240 138.667ZM170.667 117.333C168.557 117.333 166.495 117.959 164.741 119.131C162.986 120.303 161.619 121.969 160.812 123.918C160.005 125.867 159.793 128.012 160.205 130.081C160.616 132.15 161.632 134.051 163.124 135.543C164.616 137.034 166.517 138.05 168.586 138.462C170.655 138.873 172.799 138.662 174.749 137.855C176.698 137.047 178.364 135.68 179.536 133.926C180.708 132.172 181.333 130.11 181.333 128C181.333 125.171 180.209 122.458 178.209 120.458C176.209 118.457 173.496 117.333 170.667 117.333Z" fill="#8C8C8C"/>
    <path d="M117.333 138.667H16C13.171 138.667 10.4579 137.543 8.45751 135.543C6.45712 133.542 5.33331 130.829 5.33331 128C5.33331 125.171 6.45712 122.458 8.45751 120.458C10.4579 118.457 13.171 117.333 16 117.333H117.333C120.162 117.333 122.875 118.457 124.876 120.458C126.876 122.458 128 125.171 128 128C128 130.829 126.876 133.542 124.876 135.543C122.875 137.543 120.162 138.667 117.333 138.667Z" fill="#8C8C8C"/>
    <path d="M240 74.6667H149.333C146.504 74.6667 143.791 73.5429 141.791 71.5426C139.79 69.5422 138.667 66.8291 138.667 64.0001C138.667 61.1711 139.79 58.458 141.791 56.4576C143.791 54.4572 146.504 53.3334 149.333 53.3334H240C242.829 53.3334 245.542 54.4572 247.542 56.4576C249.543 58.458 250.667 61.1711 250.667 64.0001C250.667 66.8291 249.543 69.5422 247.542 71.5426C245.542 73.5429 242.829 74.6667 240 74.6667Z" fill="#8C8C8C"/>
    <path d="M96 96.0001C89.3888 95.9925 82.9422 93.9375 77.5464 90.1175C72.1506 86.2974 68.0704 80.8999 65.8666 74.6668H16C13.171 74.6668 10.4579 73.543 8.45751 71.5426C6.45712 69.5422 5.33331 66.8291 5.33331 64.0001C5.33331 61.1711 6.45712 58.458 8.45751 56.4576C10.4579 54.4572 13.171 53.3334 16 53.3334H65.8666C67.8227 47.8009 71.2624 42.9127 75.8097 39.2035C80.3569 35.4943 85.8365 33.1069 91.6493 32.3023C97.462 31.4978 103.384 32.3071 108.768 34.6418C114.152 36.9764 118.79 40.7466 122.175 45.5399C125.56 50.3331 127.562 55.965 127.962 61.8195C128.362 67.6741 127.144 73.5258 124.442 78.7349C121.74 83.9439 117.658 88.3097 112.641 91.3547C107.625 94.3998 101.868 96.0068 96 96.0001ZM96 53.3334C93.8903 53.3334 91.828 53.959 90.0739 55.1311C88.3198 56.3032 86.9526 57.9691 86.1453 59.9182C85.3379 61.8672 85.1267 64.0119 85.5383 66.0811C85.9498 68.1502 86.9657 70.0508 88.4575 71.5426C89.9493 73.0343 91.8499 74.0502 93.919 74.4618C95.9881 74.8734 98.1329 74.6622 100.082 73.8548C102.031 73.0475 103.697 71.6803 104.869 69.9262C106.041 68.1721 106.667 66.1098 106.667 64.0001C106.667 61.1711 105.543 58.458 103.542 56.4576C101.542 54.4572 98.829 53.3334 96 53.3334Z" fill="#8C8C8C"/>
</svg>
